# xmcd CD database file
#
# Track frame offsets:
#	150
#	11463
#	26949
#	49032
#	68262
#	79413
#	100847
#	124057
#	138395
#	157792
#	179775
#	193388
#	220298
#	237013
#	251519
#	268388
#	293449
#	308281
#
# Disc length: 4311 seconds
#
# Revision: 0
# Processed by: cddbd v1.5.1PL0 Copyright (c) Steve Scherf et al.
# Submitted via: CDex 1.51
#
DISCID=f910d512
DTITLE=Various Artist - ママレード・ボーイ Vol.2 メッセージ・愛する人へ… 〜劇伴＆ナレーションアルバム〜
DYEAR=2005
DGENRE=Anime
TTITLE0=笑顔に会いたい［インストゥルメンタルヴァージョン］
TTITLE1=「大切な人・大好きな人」…光希
TTITLE2=光希の毎日「いつも元気で明るくて…」
TTITLE3=私だけの“ママレード・ボーイ”「だけど気になる…」
TTITLE4=「あきらめの悪いヤツ」…銀太（友情出演（？）／務）
TTITLE5=銀太と六反田「こ、このスットコドッコイがっ！！」
TTITLE6=因縁の大勝負！「負けたほうは…坊主だっ！！」
TTITLE7=「想い出いっぱいの場所」…茗子
TTITLE8=別れと希望と「友情に支えられて─」
TTITLE9=晴れた空の下で「めいっぱい気分爽快！」
TTITLE10=「涙のにおい」…亜梨実
TTITLE11=悲しく燃える情熱「好きなの、忘れられないの！」
TTITLE12=迷走する恋愛「思いどおりにならないのね…」
TTITLE13=「夢がどんどん膨らんで」…遊
TTITLE14=バイト先にて…「古着屋のなごやかな風景」
TTITLE15=光希の憧れ「本当に大切な人は…」
TTITLE16=「少しずつ大人になるのかな？」…光希
TTITLE17=素敵な小夜曲［インストゥルメンタルヴァージョン］
EXTD=YEAR: 2005
EXTT0=
EXTT1=
EXTT2=
EXTT3=
EXTT4=
EXTT5=
EXTT6=
EXTT7=
EXTT8=
EXTT9=
EXTT10=
EXTT11=
EXTT12=
EXTT13=
EXTT14=
EXTT15=
EXTT16=
EXTT17=
PLAYORDER=
